<svg width="328.331" height="352.167" xmlns="http://www.w3.org/2000/svg">
  <path d="M24.385 151.916c-.022.022-.065 15.612-.065 15.612l7.654.768v7.294l-7.636.717c0 4.878 0 9.785.013 15.179.013.487.053.528.503.501 2.684-.027 4.919-.027 7.674-.027v-7.941c2.978 0 5.427 0 7.849-.471-.026-5.379-.026-10.288-.026-15.248h15.946c0 5.452 0 10.561.456 15.663 2.713-.006 4.97-.006 7.713-.006v-15.688h24.039v15.7c2.951 0 5.42 0 7.867-.468-.022-5.373-.022-10.278-.022-15.184h15.936c0 5.475 0 10.589.458 15.673 2.712-.029 4.966-.029 7.718-.029v16.043c2.97 0 5.433 0 7.891-.472-.062-16.173-.118-31.875-.632-47.577-34.744-.02-69.029-.041-103.336-.039Zm256.034 40.137c-.024-6.803-.108-45.683-.09-48.114.018.017.053.053-.403.037-2.723-.016-4.991-.016-7.714-.016v71.947c-2.948 0-5.43 0-7.893.47.02 5.471.02 10.472.02 15.532-3.143 0-5.593 0-8.021.472.021 10.729.021 20.988.021 31.647 8.353 0 16.143 0 23.966-.034l.098-.102v-7.938c-4.399 0-8.171-.182-11.917.054-3.331.211-4.383-1.111-4.19-4.305.218-3.61.05-7.243.05-11.311l7.639-.807.711-7.242 7.676-.764c0-4.972 0-9.874-.011-15.682.012-3.219.035-5.531.034-8.298-.008-2.883.009-5.313-.01-8.173-.012-2.746.011-5.059.034-7.373Z" style="transform-origin:152.369px 203.985px" transform="rotate(180 0 0)"/>
  <path d="M.701 304.144c5.458-.002 26.122-.078 23.416-.078v-40.087c-2.929 0-18.665.238-23.837.234-.007-.043.214 10.81.259 15.951 2.718-.014 5.114-.014 7.499-.014l7.897-7.689-15.65 23.858v7.863s-.035-.036.416-.038Z" style="transform-origin:12.32px 284.079px" transform="rotate(180 0 0)"/>
  <path fill="#47ACFE" d="M320.161 112.134h7.899c0-21.406 0-42.314-.003-64.126.045-3.266.094-5.628.073-8.436-.07-2.778-.07-5.11-.07-7.596-3.217 0-5.632 0-8.039.471-.039 26.788-.086 53.105-.065 79.489l.205.198Zm-144.256-80.24h-7.613v80.14c2.245 0 4.486 0 7.239-.016.512-.016.647-.149.59-.604-.019-26.722.019-52.989-.011-79.321l-.205-.199Z" style="transform-origin:248.213px 72.014px" transform="rotate(180 0 0)"/>
  <path d="M64.385 56.441v7.621h55.749c.11-2.256.219-4.492.315-7.209-.014-.48-.079-.548-.542-.516-18.773.01-37.082-.01-55.425.002l-.097.102Z" style="transform-origin:92.417px 60.196px" transform="rotate(180 0 0)"/>
  <path fill="#47ACFE" d="M224.495 39.758c15.609-.034 31.219-.067 47.355-.116.527-.016.662-.149.605-.588-.057-2.679-.057-4.919-.057-7.159h-47.814c-.128 2.693-.245 5.145-.294 7.665l.205.198Z" style="transform-origin:248.379px 35.826px" transform="rotate(180 0 0)"/>
  <path fill="#9DC5FF" d="M288.357 136.073v15.679l7.932.431c0 2.386 0 4.648.013 7.38.012.471.223.54.655.498 2.76-.091 5.089-.141 7.393-.65-.079-8.099-.133-15.739-.624-23.382-2.78-.05-5.121-.099-7.9-.099-2.781.08-5.125.111-7.469.143Z" style="transform-origin:296.354px 148.002px" transform="rotate(180 0 0)"/>
  <path d="M16.82 144.061h7.613v-31.757l-7.174-.343c-.445-.021-.51.047-.511.544-.022 10.806-.043 21.116-.031 31.458l.103.098Z" style="transform-origin:20.574px 128.008px" transform="rotate(180 0 0)"/>
  <path fill="#47ACFE" d="M312.565 24.552h7.893c0-7.992 0-15.538.053-23.542.054-.458-.083-.59-.59-.599-2.731-.01-4.955-.01-7.628-.01 0 8.461 0 16.174.067 23.953l.205.198Zm-128.248.008v7.599h24.14c0-2.249 0-4.482-.016-7.225-.015-.511-.148-.647-.604-.59-8.056.02-15.655-.018-23.321.011l-.199.205Zm104 0v7.599h24.141c0-2.254 0-4.488.054-7.165.053-.442-.084-.574-.607-.583-8.124-.047-15.723-.085-23.389-.056l-.199.205ZM176.378.486c-.069 7.81-.069 15.554-.069 23.967 2.649 0 4.886 0 7.566.053.442.054.574-.083.583-.607.009-8.038.009-15.554.009-23.258l-7.885-.354-.204.199Z" style="transform-origin:248.415px 16.223px" transform="rotate(180 0 0)"/>
  <path d="M32.33 95.959h-7.983c0 8.047 0 15.555.013 23.552.013.488.053.529.504.502 2.714-.027 4.979-.027 7.549-.027 0-8.348 0-16.147-.02-23.966l-.063-.061Zm256.088 104.079h7.956c0-5.401 0-10.237.022-15.537.022-.462-.047-.527-.528-.528-2.73-.002-4.979-.002-7.586-.002 0 5.713 0 10.825.033 15.97l.103.097Z" style="transform-origin:160.373px 147.997px" transform="rotate(180 0 0)"/>
  <path fill="#47ACFE" d="M312.316 120.056c-.069 5.148-.069 10.229-.069 15.966 2.653 0 4.884 0 7.627-.016.511-.016.646-.149.589-.603-.058-5.313-.058-10.172-.058-15.201l-7.885-.345-.204.199Zm-88.069-96.174h-7.892c0 5.314 0 10.2-.054 15.543-.054.457.083.589.59.598 2.725.01 4.943.01 7.629.01 0-5.777 0-10.832-.068-15.952l-.205-.199Zm16.018-7.862c-5.167-.027-10.227-.027-15.911-.027 0 2.552 0 4.778-.053 7.447-.054.442.083.574.606.583 5.386.009 10.25.009 15.247.009l.429-7.916s-.211-.069-.318-.096Z" style="transform-origin:268.383px 76.008px" transform="rotate(180 0 0)"/>
  <path d="M296.347 175.735c2.357.44 4.701.409 7.507-.128.482-5.478.504-10.451.525-15.425l-.061-.062c-2.447-.021-4.874-.021-7.985-.021 0 5.417 0 10.29.014 15.636Z" style="transform-origin:300.356px 168.068px" transform="rotate(180 0 0)"/>
  <path fill="#47ACFE" d="M280.569 24.045c2.506.069 4.946.069 7.965.069 0-5.316 0-10.201-.015-15.612-.015-.525-.149-.661-.588-.604-2.657.057-4.874.057-7.56.057v15.886l.198.204Z" style="transform-origin:284.453px 16px" transform="rotate(180 0 0)"/>
  <path d="M184.308 208.04v7.957c5.401 0 10.238 0 15.537.022.463.021.527-.047.529-.529l.001-7.585c-5.713 0-10.825 0-15.97.033l-.097.102Zm72.082 7.966c5.072.034 10.111.034 15.672.034.122-2.681.222-4.894.31-7.588-.014-.48-.079-.548-.541-.516-5.376.031-10.29.031-15.538.031v7.937l.097.102Zm24.039-15.972h7.956c0-5.401 0-10.238.022-15.537.022-.463-.047-.527-.528-.528-2.73-.002-4.979-.002-7.586-.002 0 5.713 0 10.825.033 15.97l.103.097ZM40.363 63.974c-2.44-.021-4.86-.021-8.006-.021 0 5.37 0 10.22-.008 15.536-.008.466.034.506.505.5 2.735-.007 4.999-.007 7.57-.007V64.036l-.061-.062ZM176.308 200.04c.013.324.032.647.038.971.135 7.805-.889 6.846 7.518 7.008.444.021.508-.047.51-.527l.001-7.587c-3.028 0-5.483 0-7.97.033l-.097.102Z" style="transform-origin:160.379px 139.995px" transform="rotate(180 0 0)"/>
  <path d="M40.443 80.017c.356.02.68-.003 1.003-.009 7.79-.138 6.855.912 7.014-7.519.022-.444-.047-.508-.527-.509-2.733-.002-4.986-.002-7.587-.002v7.937l.097.102Z" style="transform-origin:44.405px 76.001px" transform="rotate(180 0 0)"/>
  <path fill="#47ACFE" d="M208.429 8.126c-.068 2.497-.068 4.929-.068 7.967 2.659 0 4.893 0 7.567.054.44.053.572-.084.582-.589.009-2.718.009-4.93.009-7.631h-7.886l-.204.199Z" style="transform-origin:212.44px 12.043px" transform="rotate(180 0 0)"/>
  <path d="M152.383 88.055c.005.325.012.649.015.974.079 8.029-.693 6.857 7.507 7.043.444.021.508-.047.51-.511-.003-2.765-.006-5.065-.447-7.442a207.198 207.198 0 0 0-7.523-.128l-.062.064Zm-8-8c.005.325.011.65.015.976.098 7.87-.831 6.9 7.538 7.016.447.008.488-.035.481-.505-.006-2.743-.006-5.016-.006-7.572-2.991 0-5.468 0-7.966.021l-.062.064Z" style="transform-origin:152.399px 88.022px" transform="rotate(180 0 0)"/>
  <path d="M160.46 95.996c-.048 2.362-.097 4.724-.075 7.523 2.386.453 4.7.468 7.45.49.436.008.477-.035.47-.49-.005-2.764-.003-5.071-.436-7.434a366.901 366.901 0 0 0-7.409-.089Z" style="transform-origin:164.343px 100.003px" transform="rotate(180 0 0)"/>
  <path fill="#47ACFE" d="M272.507 31.975c2.498.069 4.929.069 7.967.069 0-2.66 0-4.894.054-7.568.053-.44-.084-.572-.589-.581-2.717-.01-4.93-.01-7.631-.01v7.886l.199.204Z" style="transform-origin:276.423px 27.965px" transform="rotate(180 0 0)"/>
  <path fill="#00F" d="M224.305 184.49c-.023 5.002-.046 10.004-.144 15.467-.019 16.164.037 31.866.094 48.006.001.439-.065.443.39.448 2.796.006 5.136.006 7.773.006 0 3.176 0 5.59.457 8.003l15.377-.001c0 2.976 0 5.405.448 7.906 2.71.072 4.973.072 7.35.072l.433 7.721h7.935c0-2.764 0-5.23-.069-8.158-.079-21.434-.088-42.404-.546-63.449-2.688-.075-4.926-.075-7.409-.075 0-5.613 0-10.803-.082-15.938-.081.054-.254-.039-.686-.055-2.746-.075-5.06-.132-7.813-.115-2.813.025-5.187-.025-8.001-.006-2.813.023-5.187-.023-7.996.003-2.794.103-5.153.134-7.511.165Zm-32.004 47.943h-7.889v-15.7h-24.039v15.688l-7.681.001c-.423.001-.427-.065-.432.391-.006 2.716-.006 4.976-.006 7.371l-7.828.498-.41 7.75-7.79-.001c.037-.001.039-.074.034.397-.014 5.524-.022 10.578.423 15.615 2.718-.017 4.982-.017 7.365-.017l.472-8.173c18.869 0 37.302 0 55.733-.456v-15.189l-8.014-.426c0-2.902 0-5.364-.002-7.792-.002.033.064.043.064.043Z" style="transform-origin:200.322px 228.216px" transform="rotate(180 0 0)"/>
  <path fill="#F4DBC4" d="M280.332 176.195c-2.459.033-4.922.033-7.892.033v-16.043c-2.752 0-5.006 0-7.688-.002-.429-.002-.369-.064-.396.408-.008 8.194.012 15.916-.021 23.634-.053-.005-.062-.11.395-.081 2.708.029 4.958.029 7.657.029 0 5.621 0 10.839-.052 16.052-.053-.005-.062-.11.393-.081 2.811.029 5.167.029 7.627.029 0 3.117 0 5.546.452 7.989 2.712.014 4.971.014 7.629.014 0 5.59 0 10.687.426 15.86 2.734.025 5.041-.025 7.4-.519.11-5.408.169-10.371.155-15.782-.073-2.684-.073-4.92-.073-7.71h-8.031c0-3.006 0-5.449.027-7.879.027.014.02.075-.436.056-2.703-.019-4.949-.019-7.643-.019v-16.017s.066-.004.071.029Zm-103.5-7.984c-.45 5.161-.45 10.295-.45 15.973-2.571 0-4.835 0-7.549.027-.451 7.826-.451 15.625-.451 23.973-2.57 0-4.835 0-7.549.027-.472 5.001-.494 9.974-.539 15.404 2.317.505 4.658.554 7.505.152.505-2.793.505-5.136.505-7.657 3.124 0 5.536 0 7.979-.44.09-2.792.148-5.143.131-7.957-.076-5.463-.076-10.464-.076-15.553 3.071 0 5.519 0 7.975-.466.009-5.462.009-10.457.009-15.577h8.014s-.002.073-.01-.393c-.026-5.512-.045-10.559-.033-15.574l.089.093h-7.876v7.941c-2.755 0-4.99 0-7.674.027Z" style="transform-origin:228.357px 192.097px" transform="rotate(180 0 0)"/>
  <path fill="#F4DBC4" d="M264.297 239.669c-.03-5.082-.03-10.196-.03-15.671h-15.936c0 4.906 0 9.811.022 15.184.022.468-.044.458.425.453 5.516-.023 10.562-.041 15.608-.059l-.089.093Zm-55.987-.024c-.032-5.103-.032-10.212-.032-15.664h-15.946c0 4.96 0 9.869.026 15.248.027.471-.032.409.408.405l15.573-.06s.004.066-.029.071Z" style="transform-origin:228.359px 231.825px" transform="rotate(180 0 0)"/>
  <path fill="#F90" d="M8.705 271.905c.004 2.3.007 4.6.042 7.331 2.486.431 4.941.431 7.969.431 0 2.6 0 4.854.031 7.554 5.144.446 10.256.446 15.969.446 0 2.607 0 4.855.031 7.552 18.342.469 36.651.489 55.424.479.463-2.49.463-4.949.463-7.969 5.248 0 10.162 0 15.538-.031.462-2.488.462-4.944.462-7.969 2.601 0 4.854 0 7.554-.031.446-5.144.446-10.256.446-15.969 2.607 0 4.856 0 7.552-.031.448-5.144.448-10.256.448-15.969 2.607 0 4.856 0 7.552-.031.469-10.341.49-20.651.479-31.424-7.822-.462-15.612-.462-23.965-.462 0-10.659 0-20.918.003-31.625.002-.448.049-.402-.407-.422-2.698-.02-4.939-.02-7.542-.02 0-5.651 0-10.851-.455-16.032-2.802.02-5.15.02-7.545.02 0-3.179 0-5.609-.454-8.02-2.803.02-5.151.02-7.548.02 0-3.18 0-5.611-.455-8.021-2.801.02-5.149.02-7.543.02 0-3.178 0-5.608-.455-8.019-2.802.02-5.15.02-7.545.02 0-3.179 0-5.609-.455-8.02-2.802.02-5.15.02-7.545.02 0-3.179 0-5.609-.454-8.02-2.803.02-5.151.02-7.548.02 0-3.18 0-5.611-.47-8.021-5.404.021-10.338.021-15.381.021l-.429 7.835-7.932.412c0 13.539 0 26.647.07 40.22.129 8.154.19 15.844.692 23.536 2.687.002 4.933.002 7.603.002v23.674h23.99v-23.624c2.907 0 5.382 0 7.837-.457-.019-2.726-.019-4.995-.019-7.29h15.948c0 2.782 0 5.264.456 7.726 2.723-.021 4.99-.021 7.718-.021v32.168h15.682l.446 7.958h7.51v23.866c-2.685 0-5.143 0-7.671.447-.07 2.714-.07 4.98-.07 7.368l-7.834.411-.433 7.546H72.864l-.332-7.549-7.992-.509c0-5.456 0-10.585-.457-15.714-8.098.056-15.738.112-23.377.624v15.192l-7.799.406-.479 7.945H8.705ZM128.287 95.76c.456-2.457.456-4.931.456-7.847h15.65V64.055h-7.452l-.445 7.689-7.333.001c-.419.002-.429-.072-.441.386-.012 2.71-.012 4.962-.012 7.636-8.338 0-16.204 0-24.025-.002.044-.003.049-.092.037.381-.012 13.404-.012 26.336-.012 39.728H72.658c0 2.947 0 5.429.455 7.891 2.803-.02 5.151-.02 7.548-.02 0 3.18 0 5.611.454 8.022 2.802-.021 5.149-.021 7.546-.021 0 3.18 0 5.611.454 8.021 2.802-.021 5.149-.021 7.543-.021 0 3.179 0 5.609.455 8.019 2.803-.02 5.151-.02 7.548-.02 0 3.18 0 5.611.454 8.022 2.802-.021 5.149-.021 7.637-.021 0 3.179 0 5.609-.023 8.016l-.068-.071h7.912V95.744c2.723 0 4.991 0 7.714.016Z" style="transform-origin:76.549px 179.876px" transform="rotate(180 0 0)"/>
  <path fill="#F90" d="M40.402 191.947c2.425-.023 4.875-.023 8.018-.023 0-5.06 0-10.061-.02-15.532-.019-.47.026-.423-.4-.419-2.825-.014-5.223-.031-7.601.421.038 5.52.056 10.571.073 15.622l-.07-.069Z" style="transform-origin:44.409px 183.992px" transform="rotate(180 0 0)"/>
  <path fill="#FFF" d="M215.73 120.13c.439-2.466.439-4.875.439-7.943 2.701 0 4.914 0 7.563-.057.554-2.51.671-4.962.799-7.655h47.814c0 2.24 0 4.48.057 7.159 2.483.545 4.909.652 7.942.784 0 5.029 0 9.888.058 15.201 2.466.454 4.875.454 7.943.454 0 2.701 0 4.913.057 7.563 7.657.476 15.256.514 23.312.494.456-7.769.456-15.482.456-23.943 2.673 0 4.897 0 7.56-.057.486-26.374.533-52.691.577-79.451-.003-.443.054-.44-.4-.448-2.719-.009-4.984-.009-7.613-.009l.001-8.018c.002.032.066.035-.388.027-2.702-.009-4.952-.009-7.718-.009 0-3.015 0-5.453-.458-7.936-5.34-.044-10.222-.044-15.436-.044 0-3.119 0-5.57-.467-8.021-18.853-.034-37.238-.067-56.06-.056-2.775-.009-5.115-.061-7.893-.039-2.814.025-5.189-.025-7.999.001-2.791.041-5.147.006-7.504-.028-2.329.05-4.658.1-7.418.191-.564 2.47-.695 4.899-.861 7.958-4.997 0-9.861 0-15.18.058-.454 5.111-.454 10.166-.454 15.943-2.686 0-4.904 0-7.561.057-.477 26.323-.515 52.59-.496 79.312 2.49.565 4.923.674 7.942.809 0 7.704 0 15.22.058 23.191 7.657.494 15.256.532 23.312.512.456-5.111.456-10.165.456-15.943 2.686 0 4.903 0 7.56-.057m64.577-39.038v7.092c-5.777 0-10.902 0-16 .908v6.805H216.35c0-2.781 0-5.247-.94-7.686h-15.06c0-3.096 0-5.562-.906-8h-7.096c0-3.095 0-5.562-.908-8.001h-6.797V48.253c2.786 0 5.245 0 7.678-.905v-7.096c3.098 0 5.564 0 8.001-.908v-7.281c5.691 0 10.773 0 15.963-.878v-6.64h47.994c0 2.786 0 5.247.94 7.68h15.06c0 3.096 0 5.562.906 8h7.095c0 3.098 0 5.563.908 8.001h6.798v23.957c-2.786 0-5.246 0-7.679.906v7.095c-3.098 0-5.563 0-8 .908Z" style="transform-origin:248.353px 72.116px" transform="rotate(180 0 0)"/>
  <path fill="#00A800" d="M272.479 167.613c2.394.457 4.719.469 7.928.468 3.226-.012 5.567-.012 8.073-.012 0-3.134 0-5.552-.456-7.983-2.691-.013-4.925-.013-7.3-.013l-.721-7.722-7.718-.692c0-2.808 0-5.246-.432-7.649-2.758.015-5.085-.004-7.862-.001-2.863.041-5.276.059-7.655.519.053 2.811.073 5.179.093 7.548 0 0-.064-.003.387-.016 2.784-.012 5.117-.012 7.613-.012v8.028s-.057-.003-.062-.031c2.41-.028 4.825-.028 8.042-.028 0 2.486 0 4.818.07 7.596Zm-120.064-32.136c2.382.493 4.738.528 7.53.029.458-10.818.48-21.102.468-31.42l-.102-.1h-7.948c0 2.521 0 4.864-.067 7.659-.014 8.093.04 15.733.119 23.832Z" style="transform-origin:220.387px 136.035px" transform="rotate(180 0 0)"/>
  <path fill="#FFF" d="M120.465 95.885v7.97c-2.506 0-4.847 0-7.639.067-.451 2.375-.453 4.682-.427 7.425 2.505.434 4.982.434 7.973.434 0 2.556 0 4.829.027 7.551 2.383.473 4.739.497 7.53.598 8.19.077 15.942.077 24.16.077l.479-7.945 7.799-.406c0-4.945 0-9.84-.463-15.269-5.471-.534-10.479-.534-15.516-.534 0-3.092 0-5.544-.468-8.003-5.482.025-10.495.057-15.516.055-.007-.035.064-.035.018.415-.045 2.786-.045 5.124-.045 7.622-3.145 0-5.563 0-7.981-.035 0-.036.069-.022.069-.022Z" style="transform-origin:136.379px 103.927px" transform="rotate(180 0 0)"/>
  <path fill="#00A800" d="M152.292 192.063c5.014-.032 10.027-.064 15.5-.08.46.017.484.029.472-.441.038-5.503.088-10.537.079-16.037-.018-10.826.02-21.186.059-31.546-.06-7.689-.121-15.379-.676-23.532-2.767-.462-5.039-.46-7.312-.458v7.695h-7.935l-.433-7.721h-7.812c-5.939-.008-10.968-.016-15.996-.025v7.893h8.031c0 2.79 0 5.026.503 7.709 2.811.448 5.118.45 7.878.449 2.679-.002 4.905-.002 7.612-.002 0 3.132 0 5.558.45 7.989 2.693.005 4.936.005 7.145.005v39.694l-7.565.705v7.703Z" style="transform-origin:148.32px 155.989px" transform="rotate(180 0 0)"/>
  <path d="M136.663 319.686c2.342.461 4.614.459 7.312.456.425-13.109.425-26.217.425-39.756l7.932-.412.429-7.835c5.043 0 9.977 0 15.358.003.448.002.401.049.421-.4.007-2.847-.007-5.245.003-7.62.023.023.069.069-.386.049-2.722-.02-4.99-.02-7.38-.02l-.455-7.847-7.793-.378c0-2.872 0-5.345.018-7.801.017.018.051.053-.405.038-2.704-.015-4.952-.015-7.71-.015v8.164h-7.866c.009 20.97.018 41.94.097 63.374Zm-31.684-127.573c-.457 5.014-.443 10.055-.43 16.019-.051 5.958-.099 10.992-.148 16.027.055 4.97.11 9.94.165 15.365 2.373.501 4.747.547 7.56.067.44-13.433.44-26.339.44-39.352 8.382 0 16.179 0 23.984-.443.004-2.526-.017-5.052-.064-7.578-.04-.085.106-.203.106-.203-10.381.041-20.761.083-31.613.098Z" style="transform-origin:136.479px 256.08px" transform="rotate(180 0 0)"/>
  <path fill="#FFF" d="M160.381 272.229h-23.977v39.283c2.374.507 4.748.557 7.561.075.439-10.772.439-21.013.439-31.546 5.711 0 10.844 0 15.987-.433.004-2.749-.003-5.064-.01-7.379Z" style="transform-origin:148.398px 292.074px" transform="rotate(180 0 0)"/>
  <path d="M152.388 271.99h-15.977v31.471c2.314.515 4.628.572 7.374.647.432-7.853.432-15.722.432-24.012h7.694c.379 0 .46-.17.472-.607.01-2.792.007-5.145.005-7.499Z" style="transform-origin:144.401px 288.049px" transform="rotate(180 0 0)"/>
  <path fill="#9DC5FF" d="M152.39 199.939c5.001-.005 10.03.003 15.521-.061.462-2.501.462-4.93.462-7.906-5.189 0-10.054 0-15.451.442-.525 2.828-.518 5.214-.512 7.6 0 0 .007-.061-.02-.075Z" style="transform-origin:160.382px 195.993px" transform="rotate(180 0 0)"/>
  <path d="M175.869 208.02c.45-2.367.443-4.753.511-7.58.074-2.855.074-5.269.074-8.445-2.637 0-4.977 0-7.773-.006-.455 5.201-.455 10.407-.455 16.012 2.694 0 4.94 0 7.643.019Z" style="transform-origin:172.34px 200.006px" transform="rotate(180 0 0)"/>
  <path fill="#9DC5FF" d="M184.396 200.084c18.386.033 36.771.066 56.072.098 3.306-.029 5.697-.059 8.066-.549-.021-10.685-.021-20.909-.021-31.246l7.834-.446.383-7.91c2.839 0 5.304 0 7.772-.437-.013-2.784-.03-5.13-.046-7.477 0 0 .009.105-.397.087-2.657-.018-4.908-.018-7.603-.018v-16.069s.009.105-.386.087c-2.784-.075-5.173-.132-7.562-.189h-55.734l-.472 8.173c-2.383 0-4.647 0-7.339.006-.428.007-.423-.048-.437.423-.053 18.803-.091 37.135-.13 55.467Z" style="transform-origin:224.449px 168.097px" transform="rotate(180 0 0)"/>
  <path d="M264.361 215.396c2.39.513 4.779.57 7.615.65.429-7.7.409-15.422.417-23.616-5.019-.454-10.065-.436-15.579-.446-.467 2.433-.467 4.895-.467 7.797l8.014.426v15.189Zm-47.993-22.984c-5.039-.437-10.083-.418-15.598-.427-.452 5.019-.433 10.066-.444 15.579 2.438.467 4.903.467 7.798.467l.41-7.75 7.828-.498c0-2.395 0-4.655.006-7.371Zm-16 16.015c-2.443-.471-4.891-.471-8.009-.471l.001 15.587c.001.476.021.496.465.487 2.819-.021 5.194-.034 7.569-.047 0 0-.005.055-.03.065-.018-5.043-.01-10.097.004-15.621Z" style="transform-origin:232.376px 208.016px" transform="rotate(180 0 0)"/>
  <path fill="#9DC5FF" d="M176.122 135.99c-2.308.05-4.615.1-7.452.119-.531-.031-.639.167-.554.605.084 2.692.084 4.946.084 7.51-3.032 0-5.491 0-7.956.466-.003 5.504.001 10.541.004 15.542-.001-.036-.073-.039.377-.033 2.857.002 5.263-.002 7.633-.005-.036.001-.039.074-.033-.381.007-2.797.007-5.138.007-7.62l8.026.001c-.036.001-.039.074-.033-.397.075-5.488.144-10.504.158-15.62-.054-.099-.261-.187-.261-.187Z" style="transform-origin:168.313px 148.111px" transform="rotate(180 0 0)"/>
  <path d="M264.224 199.809c.104-5.142.104-10.239.104-15.829h-7.642c-.467 0-.495.027-.486.492.087 5.468.165 10.47.661 15.489 2.663.041 4.907.065 7.151.09 0 0 .108-.198.212-.242Zm15.941-15.82c-2.308-.001-4.615-.003-7.353-.003-.489 4.964-.548 9.927-.658 15.335-.051.444.156.532.647.602 2.72.071 4.947.071 7.578.071 0-3.121 0-5.566-.068-8.45-.094-2.811-.12-5.183-.146-7.555Zm-39.543-24.041c-.457 5.19-.457 10.409-.457 16.04 2.695 0 4.946 0 7.656.023.458-5.195.458-10.413.458-16.034-2.699 0-4.949 0-7.657-.029Zm7.998 16c-.439 2.318-.422 4.664.03 7.506 2.804.514 5.173.534 7.541.553l.042-.041c.014-2.443.014-4.872.014-7.989-2.46 0-4.816 0-7.627-.029Zm-88.414-7.974c-2.457-.01-4.905-.01-7.976-.01 0 5.089 0 10.09.501 15.554 2.773.465 5.046.467 7.388.007.085-5.482.101-10.502.117-15.521l-.03-.03Z" style="transform-origin:216.304px 179.998px" transform="rotate(180 0 0)"/>
  <path fill="#00A800" d="m280.36 168.007-7.242-.007c-.484 2.351-.542 4.702-.632 7.494-.031.44.037.506.502.518 2.769.012 5.071.012 7.445-.428.023-2.819-.025-5.198-.073-7.577Z" style="transform-origin:276.459px 172.009px" transform="rotate(180 0 0)"/>
  <path fill="#FFF" d="M48.366 96.264v15.714l7.992.509.332 7.549h23.601l.433-7.546 7.834-.411c0-2.388 0-4.654-.007-7.818-.007-3.16-.007-5.423-.007-8.044h-8.022v-7.976c-10.912 0-21.462 0-32.002.446-.044 2.822-.099 5.2-.154 7.577Z" style="transform-origin:68.462px 104.14px" transform="rotate(180 0 0)"/>
  <path d="M80.592 152.014h32.013v7.976h8.022c0 2.621 0 4.884.077 7.597 2.535.45 4.993.45 7.678.45v-23.866h-7.51l-.446-7.958h-15.682v-32.168c-2.728 0-4.995 0-7.696-.003-.433-.003-.387-.05-.407.421-.02 13.396-.02 26.32-.02 39.702H80.644c0 2.944 0 5.423-.013 7.889l-.039-.04Zm-39.381-47.979a355.602 355.602 0 0 0-.068 31.541c2.821.526 5.152.588 7.945.587 5.343-.063 10.224-.063 15.502-.063 0 2.922 0 5.35.45 7.847 2.718.069 4.986.069 7.379.069l.434-7.807 7.716-.401c0-10.9 0-21.358.023-31.793l.069.072h-7.857v23.624h-23.99v-23.674c-2.67 0-4.916 0-7.603-.002Zm38.781 56.002c.512-2.377.567-4.755.611-7.577-.011-.446.015-.419-.442-.419l-39.518.044s-.024-.012-.016-.021c.009 2.442.009 4.894.009 7.986 5.037 0 10.045 0 15.515.077 8.103.022 15.743-.034 23.841-.09Z" style="transform-origin:84.504px 136.026px" transform="rotate(180 0 0)"/>
  <path d="M64.361 216.058c-.022-2.459-.022-4.941-.022-7.723H48.391c0 2.295 0 4.564.019 7.29.02.457-.026.409.421.405l15.599-.043-.069.071Zm23.613-7.999c.439-5.031.421-10.082.407-15.579.002-.447.049-.401-.4-.421-2.847-.006-5.245.007-7.62-.003l.071-.069v16.052c2.603 0 4.844 0 7.542.02Zm-31.542-40.072v8.039c2.394 0 4.742 0 7.521.003.431.003.385.05.405-.399.007-2.847-.007-5.245.003-7.62.023.023.069.069-.38.049-2.847-.006-5.245.007-7.62-.003l.071-.069Z" style="transform-origin:68.388px 192.024px" transform="rotate(180 0 0)"/>
  <path d="M56.464 192.02v8.04c2.395 0 4.743 0 7.545-.02.455-.02.408.026.404-.4-.016-2.824-.03-5.222-.02-7.597.023.023.069.069-.38.049-2.847-.006-5.245.007-7.62-.003l.071-.069Z" style="transform-origin:60.404px 196.04px" transform="rotate(180 0 0)"/>
  <path d="M80.439 216.041c.023 2.408.023 4.839.023 8.019 2.397 0 4.745 0 7.548-.02.454-.02.407.026.403-.4-.016-2.824-.03-5.222-.02-7.597.023.023.069.069-.38.049-2.548-.003-5.095.004-7.643.02l.069-.071ZM64.464 200.02v8.04c2.395 0 4.743 0 7.545-.02.455-.02.408.026.404-.4-.016-2.824-.03-5.222-.02-7.597.023.023.069.069-.38.049-2.847-.006-5.245.007-7.62-.003l.071-.069Z" style="transform-origin:76.404px 212.04px" transform="rotate(180 0 0)"/>
  <path d="M88.464 224.02v8.04c2.395 0 4.743 0 7.545-.02.455-.02.408.026.404-.4-.016-2.824-.03-5.222-.02-7.597.023.023.069.069-.38.049-2.847-.006-5.245.007-7.62-.003l.071-.069Z" style="transform-origin:92.404px 228.04px" transform="rotate(180 0 0)"/>
  <path d="M96.462 232.02c.023 2.407.023 4.838.023 8.018 2.397 0 4.745 0 7.548-.02.454-.02.407.026.403-.4-.016-2.824-.03-5.222-.02-7.597.023.023.069.069-.38.049-2.548-.003-5.095.004-7.643.02l.069-.07Z" style="transform-origin:100.416px 236.029px" transform="rotate(180 0 0)"/>
  <path d="M80.34 200.253a233.993 233.993 0 0 0-8.032-.144c0 2.475 0 4.827.002 8.088l.001 15.659H32.076v-7.648c-2.837 0-5.31 0-7.766-.018.017-.017.051-.052.035.417-.002 5.518.012 10.566.025 15.614 0 0-.046-.046.386-.049 2.779-.003 5.126-.003 7.614-.003v8.052s-.046-.046.386-.049c2.779-.003 5.126-.003 7.614-.003v8.052s-.046-.046.38-.049c2.824-.016 5.222-.03 7.597-.02l-.071.069v-7.911h32.052c0-13.392 0-26.653.012-40.057Zm24.066-8.015c-7.064-.524-15.786-.129-24.088-.129 0 2.679 0 5.458-.03 8.165 8.165-.071 15.702-.071 24.04-.071 0-2.674.066-5.255.078-7.965Zm-32.13 79.983v-8.039c-2.394 0-4.741 0-7.52-.003-.432-.003-.386-.05-.406.399-.006 2.847.007 5.245.02 7.643 0 0-.046-.046.38-.049 2.824-.016 5.222-.03 7.597-.02l-.071.069Zm8.024 15.931c2.375-.005 4.773.012 7.621.049.449-2.41.449-4.84.449-8.019-2.488 0-4.835 0-7.614-.003-.432-.003-.386-.05-.406.399-.006 2.847.007 5.245.02 7.643l-.07-.069Z" style="transform-origin:64.358px 240.095px" transform="rotate(180 0 0)"/>
  <path d="M72.3 223.99c-.022-2.408-.022-4.839-.022-8.019-2.397 0-4.745 0-7.548.02-.455.02-.407-.026-.404.4.017 2.824.03 5.222.043 7.62 0 0-.046-.046.38-.049l7.62-.043-.069.071Zm-16-16c-.022-2.407-.022-4.838-.022-8.018-2.397 0-4.744 0-7.523-.003-.432-.003-.386-.05-.406.399a963.29 963.29 0 0 0 .02 7.643s-.046-.046.38-.049l7.62-.043-.069.071Z" style="transform-origin:60.358px 211.99px" transform="rotate(180 0 0)"/>
  <path d="M112.248 343.991c-.022-2.408-.022-4.839-.022-8.019-2.397 0-4.745 0-7.548.02-.455.02-.407-.026-.404.4.017 2.824.03 5.222.043 7.62 0 0-.046-.046.38-.049l7.62-.043-.069.071Zm-39.821-72.03h23.86c0-13.23 0-26.143.002-39.955-.039-3.268-.08-5.637-.122-8.006l-7.486-.029c-.412-.001-.349-.065-.377.406-.076 8.143-.124 15.814-.131 23.957.041 5.38.041 10.287.041 15.639-5.626 0-10.716 0-15.865.44-.014 2.809.032 5.179.078 7.548Z" style="transform-origin:92.332px 283.99px" transform="rotate(180 0 0)"/>
  <path fill="#47ACFE" d="M120.438 320.394c.015-2.815-.031-5.185-.074-8.435.041-3.258.079-5.635.056-8.476-.121-5.486-.182-10.509-.243-15.532-2.298-.005-4.596-.01-7.363-.006-.47.009-.547.084-.515.546.011 13.437-.01 26.412.007 39.424l.117.11h7.955c0-2.703 0-4.944.06-7.631Z" style="transform-origin:116.367px 307.983px" transform="rotate(180 0 0)"/>
  <path d="M112.145 279.56c-.014 5.486.047 10.509.609 16.012 2.755.48 5.009.48 7.621.48 0-3.175 0-5.654-.065-8.59-.087-8.138-.111-15.818-.103-23.465l.092.097h-8.078c0 4.996 0 10-.076 15.466Zm8.077 64.48c-.008-2.336.001-4.69-.011-7.48-5.014-.466-10.007-.496-15.464-.481-.479 2.394-.494 4.744-.494 7.536.015.443-.019.408.433.406l15.587-.033-.051.052Z" style="transform-origin:112.314px 304.02px" transform="rotate(180 0 0)"/>
  <path fill="#47ACFE" d="M128.368 335.621c.039-2.493.039-4.949.039-7.681h-8.097c0 2.247 0 4.498.009 7.232.009.484.084.561.519.529 2.761-.01 5.087.011 7.413.032l.117-.112Z" style="transform-origin:124.359px 331.835px" transform="rotate(180 0 0)"/>
  <path fill="#47ACFE" d="M136.359 288.036c-2.456-.039-4.875-.039-7.958-.039 0 2.636 0 4.851.009 7.507.01.442-.136.56.353.579 2.756.02 5.023.02 7.707.02v-7.951l-.111-.116Zm-8.012 32.111c.073 2.473.073 4.886.073 7.946 2.569 0 4.788 0 7.49-.009.483-.009.56-.084.528-.529-.031-2.701-.031-4.956-.031-7.637h-8.053s-.081.17-.007.229Z" style="transform-origin:132.393px 308.045px" transform="rotate(180 0 0)"/>
  <path fill="#47ACFE" d="M120.376 280.408c-.039 2.493-.039 4.95-.039 7.682h8.097c0-2.253 0-4.504.031-7.201.031-.445-.048-.518-.521-.524-2.799-.027-5.126-.048-7.452-.069l-.116.112Z" style="transform-origin:124.404px 284.193px" transform="rotate(180 0 0)"/>
  <path d="M104.295 351.67c-.031-2.428-.031-4.888-.031-7.692h-7.931c0 2.301 0 4.556.029 7.267.028.458-.033.393.386.389l7.64-.06-.093.096Z" style="transform-origin:100.36px 347.824px" transform="rotate(180 0 0)"/>
  <path fill="#00F" d="M264.379 151.603c-.022 2.841.026 5.22.077 8.501.008 11.199.014 21.495.019 31.79 2.339.053 4.679.105 7.454.114.475-18.376.513-36.708.566-55.511-2.361-.458-4.736-.445-7.555-.424-.46 5.028-.476 10.048-.561 15.53Z" style="transform-origin:268.434px 164.038px" transform="rotate(180 0 0)"/>
  <path fill="#47ACFE" d="M232.444 111.974v7.713h47.957c0-2.298 0-4.551.002-7.243.002-.439.034-.408-.437-.419-16.176-.003-31.881.004-47.57-.004l.048-.047Zm47.929-55.932v-7.707h-47.994c0 2.179 0 4.409.007 7.147.008.507.135.639.594.59 10.781-.002 21.103.045 31.888.032 5.499-.082 10.534-.103 15.553-.109l-.048.047Z" style="transform-origin:256.4px 84.011px" transform="rotate(180 0 0)"/>
  <path fill="#0F0" d="M280.003 167.975c.434-10.37.428-20.666.349-31.424-2.377-.463-4.679-.463-7.414-.441-.453 10.306-.475 20.59-.498 31.333 2.374.507 4.749.557 7.563.532Z" style="transform-origin:276.417px 152.04px" transform="rotate(180 0 0)"/>
  <path fill="#47ACFE" d="M295.96 120.039h7.706V96.082c-2.299 0-4.549 0-7.236-.002-.439-.003-.407-.034-.418.436-.004 8.176.003 15.881-.005 23.571l-.047-.048Zm-95.932-23.93h-7.705v23.957c2.299 0 4.548 0 7.236.003.438.002.407.033.418-.437.003-8.176-.004-15.881.005-23.57l.046.047Zm104.016-40.122c-2.391.029-4.782.059-7.621.089-.448 2.452-.448 4.903-.448 8.022 5.214 0 10.096 0 15.494-.009.516-.009.63-.119.586-.551-.076-2.751-.107-5.07-.574-7.42-2.769-.065-5.103-.098-7.437-.131Zm-80.126 24c-5.143-.068-10.225-.068-15.916-.068 0 2.79 0 5.036-.002 7.72-.002.438-.034.407.413.418 2.826.065 5.206.12 8.029.105 2.836-.086 5.228-.104 7.573-.118-.048.003-.054.098-.039-.346.053-2.799.092-5.155.131-7.511 0 0-.127-.132-.189-.2Zm64.041 8.121v-8.027c-5.217 0-10.139 0-15.53.014-.47.013-.438-.018-.433.42.005 2.691.005 4.943.005 7.531 5.785 0 10.903 0 16.006.015l-.048.047ZM208.03 128.04v8.027c5.217 0 10.138 0 15.53-.013.47-.014.438.017.433-.414-.057-2.812-.108-5.192-.591-7.57-2.756-.049-5.08-.101-7.846-.093-2.524.072-5.049.108-7.574.11l.048-.047Zm63.945 8.016c5.11-.016 10.235-.016 16.012-.016 0-2.578 0-4.835.002-7.53.002-.439.034-.408-.436-.419-5.383-.01-10.297-.01-15.53-.01v8.021l-.048-.046Zm-63.961-47.963c-2.449.015-4.915.015-8.013.015 0 2.572 0 4.834.014 7.549.013.452-.018.42.419.415 2.692-.005 4.948-.005 7.532-.005v-8.021l.048.047Z" style="transform-origin:252.193px 96.044px" transform="rotate(180 0 0)"/>
  <path fill="#47ACFE" d="M176.394 120.071c.015 2.45.015 4.917.015 8.012 2.572 0 4.834 0 7.549-.014.453-.013.421.018.416-.418-.005-2.693-.005-4.949-.005-7.533h-8.022l.047-.047Zm87.962 8.001c2.449-.016 4.914-.016 8.012-.016 0-2.572 0-4.833-.013-7.548-.014-.453.017-.421-.419-.416-2.693.005-4.949.005-7.532.005v8.021l-.048-.046Zm31.612-55.969c.434-2.361.414-4.729.392-7.546-.003-.448-.004-.385-.442-.419-2.771-.074-5.105-.113-7.438-.152 0 0-.114.11-.172.163-.058 2.492-.058 4.93-.058 7.945 2.766 0 5.016 0 7.718.009Zm-23.611 24.006c-.016-2.449-.016-4.914-.016-8.012-2.571 0-4.833 0-7.548.014-.453.013-.421-.018-.416.418.005 2.693.005 4.949.005 7.533h8.022l-.047.047Zm31.611-16.006c.454-2.408.454-4.824.454-8.02-2.496 0-4.829 0-7.615-.02-.452 2.451-.452 4.922-.452 8.031 2.629 0 4.894 0 7.613.009Z" style="transform-origin:240.384px 96.052px" transform="rotate(180 0 0)"/>
  <path fill="#0F0" d="M176.869 160.048c.007-2.429.007-4.893.007-7.669l7.565-.705V111.98c-2.209 0-4.452 0-7.161.01-.464.01-.494.041-.473.505.021 5.394.021 10.325.021 15.326l-8.171.384v7.839h-7.84s.003-.073.012.379c.009 2.8.009 5.149.009 7.621h-8.021s.003-.073.012.366c-.025 2.791-.06 5.143-.094 7.494v7.684l7.718.692.721 7.722c2.375 0 4.609 0 7.3.013.456.013.387-.001.379-.421-.009-2.669-.009-4.916-.009-7.581h8.089s-.071 0-.064.035Zm-40.086-8.039c2.382-.012 4.795-.03 7.631-.509.402-2.817.38-5.174.359-7.531 0 0 .072.003-.368.012-2.795-.03-5.149-.068-7.524.348-.037 2.883-.053 5.31-.068 7.737 0 0 .001-.063-.03-.057Z" style="transform-origin:160.612px 139.999px" transform="rotate(180 0 0)"/>
  <path fill="#00F" d="M168.743 128.054c-.429 2.351-.407 4.708-.358 7.503 2.353.457 4.68.476 7.438.461.466-2.386.501-4.738.562-7.53-2.379-.436-4.785-.432-7.642-.434Z" style="transform-origin:172.372px 132.039px" transform="rotate(180 0 0)"/>
  <path fill="#00A800" d="M152.382 112.363c-2.405-.45-4.857-.45-8.043-.45 0 2.665 0 4.912.009 7.616 2.426.456 4.844.456 7.989.456 0-2.498 0-4.836.045-7.622Z" style="transform-origin:148.36px 115.949px" transform="rotate(180 0 0)"/>
  <path fill="#F90" d="M128.376 120.45c-5.031-.458-10.082-.444-15.602-.451-.47 10.438-.47 20.896-.47 31.796l-7.716.401-.434 7.807c-2.393 0-4.661 0-7.839-.006-5.778-.007-10.647-.007-15.954-.007v-7.776c-2.331-.063-4.662-.125-7.426-.185-.481 5.036-.531 10.07-.569 15.573 13.032.455 26.052.441 39.543.439.47-2.466.47-4.945.47-7.889h15.977c0-13.382 0-26.306.02-39.702Z" style="transform-origin:100.371px 144.019px" transform="rotate(180 0 0)"/>
  <path fill="#0F0" d="M144.673 167.967c-.426 2.374-.4 4.746.124 7.557 2.808.455 5.118.47 7.428.486l.045-.046c.015-2.441.015-4.867.015-7.999-2.707 0-4.933 0-7.612.002Z" style="transform-origin:148.331px 171.989px" transform="rotate(180 0 0)"/>
  <path fill="#F90" d="M112.402 240.439c-5.029-.458-10.074-.448-15.589-.453-.469 2.457-.469 4.93-.469 7.802l7.793.378.455 7.847c2.39 0 4.658 0 7.38.02.442-5.028.428-10.076.43-15.594Zm7.576 23.594c.449-2.41.449-4.84.449-8.032-2.488 0-4.835 0-7.637-.02-.442 2.378-.428 4.776-.435 7.623 2.378.436 4.776.423 7.623.429Z" style="transform-origin:108.386px 252.011px" transform="rotate(180 0 0)"/>
  <path fill="#282828" d="M128.506 327.493c2.358.466 4.685.487 7.446.477.456-13.006.477-25.981.466-39.418-2.358-.483-4.684-.504-7.445-.494-.435 2.489-.435 4.946-.435 7.983-2.684 0-4.951 0-7.667.065-.438 2.416-.428 4.766-.425 7.559 0 2.758.007 5.073.003 7.822-.008 2.787-.005 5.14-.015 7.932 2.457.437 4.925.437 8.041.437 0 2.681 0 4.936.031 7.637Z" style="transform-origin:128.427px 308.014px" transform="rotate(180 0 0)"/>
  <path fill="#00A800" d="M176.186 175.612c2.356.494 4.69.527 7.5.552.476-.008.557-.089.527-.55-.03-7.969-.03-15.476-.03-23.242 5.777 0 10.839 0 16.012-.021.11-.021.19-.23.19-.23-.079-5.157-.16-10.314-.242-15.472-2.377-.484-4.746-.504-7.553-.581-2.904-.058-5.369-.058-8.208-.058l-.383 7.91-7.834.446c0 10.337 0 20.561.021 31.246Z" style="transform-origin:188.275px 156.087px" transform="rotate(180 0 0)"/>
  <path fill="#00F" d="M184.305 136.465c-2.331-.48-4.641-.495-7.381-.511-.43 2.445-.43 4.89-.43 8.011-2.631 0-4.858 0-7.524.028-.505 5.046-.574 10.062-.649 15.55 2.471.471 4.948.471 7.834.471v-7.839l8.171-.384c0-5.001 0-9.932-.021-15.326ZM144.4 167.844c2.354.039 4.708.077 7.504.143.437-5.01.433-10.047.428-15.558 0-.473-.015-.488-.469-.482-2.687.006-4.92.006-7.408.006 0 5.599 0 10.78-.036 15.962-.036-.001-.019-.071-.019-.071Zm15.921-.285c2.424.455 4.855.455 8.015.455 0-2.472 0-4.821.027-7.622-2.398-.453-4.823-.453-8.035-.453 0 2.482 0 4.823-.007 7.62Z" style="transform-origin:164.361px 151.984px" transform="rotate(180 0 0)"/>
  <path fill="#00F" d="M176.319 152.525c-2.329-.463-4.573-.487-7.236-.528-.419-.017-.499.192-.576.634-.079 2.753-.081 5.064-.083 7.375l.022.022c2.466.007 4.925.007 7.957.007 0-2.564 0-4.818-.084-7.51Z" style="transform-origin:172.414px 156.017px" transform="rotate(180 0 0)"/>
  <path fill="#888" d="M104.879 128.114c-.462 2.482-.462 4.901-.462 7.84 5.307 0 10.176 0 15.504-.063.46-2.49.46-4.918.46-7.84-5.278 0-10.159 0-15.502.063Z" style="transform-origin:112.399px 132.001px" transform="rotate(180 0 0)"/>
  <path fill="#F90" d="M96.418 232.417c-2.378-.436-4.776-.422-7.623-.429-.436 2.378-.422 4.776-.429 7.623 2.378.436 4.776.423 7.623.429.436-2.378.423-4.776.429-7.623Zm-16-16c-2.378-.436-4.776-.422-7.623-.429-.436 2.378-.422 4.776-.429 7.623 2.378.436 4.776.423 7.623.429.436-2.378.423-4.776.429-7.623Zm-8-8c-2.378-.436-4.776-.422-7.623-.429-.436 2.378-.422 4.776-.429 7.623 2.378.436 4.776.423 7.623.429.436-2.378.423-4.776.429-7.623Zm15.571 23.623c.436-2.378.423-4.776.429-7.623-2.378-.436-4.776-.422-7.623-.429-.436 2.378-.422 4.776-.429 7.623 2.378.436 4.776.423 7.623.429Zm-24-24c.436-2.378.423-4.776.429-7.623-2.378-.436-4.776-.422-7.623-.429-.436 2.378-.422 4.776-.429 7.623 2.378.436 4.776.423 7.623.429Zm-8-8c.449-2.41.449-4.84.449-8.032-2.488 0-4.835 0-7.637-.02-.442 2.378-.428 4.776-.435 7.623 2.378.436 4.776.423 7.623.429Z" style="transform-origin:72.392px 216.014px" transform="rotate(180 0 0)"/>
  <path fill="#FFF" d="M104.301 320.556c-2.379-.453-4.786-.434-7.643-.443-.427 7.651-.403 15.331.112 23.496 2.782.468 5.07.45 7.359.432.048-7.671.096-15.342.172-23.485Z" style="transform-origin:100.33px 332.079px" transform="rotate(180 0 0)"/>
  <path fill="#888" d="M112.275 304.455c-2.33-.454-4.618-.436-7.335-.446-.428 2.451-.428 4.93-.428 8.105-2.612 0-4.866 0-7.56-.017-.479 2.361-.517 4.738-.498 7.556 5.146.441 10.236.441 15.862.441 0-5.352 0-10.259-.041-15.639Z" style="transform-origin:104.383px 312.05px" transform="rotate(180 0 0)"/>
  <path fill="#F4DBC4" d="M304.407 72.32c-2.45-.47-4.911-.47-8.011-.47 0-2.584 0-4.84.011-7.548-5.108-.452-10.226-.452-16.011-.452 0-2.588 0-4.84.011-7.547-5.024-.432-10.059-.411-15.556.105-.483 2.839-.504 5.182-.068 7.501 2.715-.026 4.974-.026 7.242-.026v7.66h-7.578c0-2.8 0-5.265-.472-7.701-10.854.055-21.236.079-31.619.104 0 0 .006-.095.023.357.016 2.722.016 4.992.016 7.34h-8.002v-7.608l-7.585-.174c-.447 2.448-.447 4.907-.447 8.01-2.584 0-4.84 0-7.548-.01-.445 7.694-.438 15.399-.441 23.575 2.448.47 4.907.47 8.011.47 0 2.584 0 4.84-.011 7.548 2.372.431 4.754.409 7.577-.127.494-5.489.547-10.463.537-15.884-.062-2.703-.062-4.958-.062-7.15h15.653v7.73c-2.764 0-5.228 0-7.69.458-.052 5.435-.105 10.413-.159 15.39.052 2.381.103 4.761.144 7.589 15.694.439 31.399.432 47.575.435.471-2.451.471-4.913.471-8.01 5.233 0 10.147 0 15.53.01.47-2.448.47-4.907.47-8.01 2.583 0 4.839 0 7.548.011.444-7.695.437-15.4.441-23.576m-39.983 14.676v-6.703h15.653v7.73c-2.764 0-5.228 0-7.688.917v14.632h-7.84c0-5.431 0-10.557-.125-16.576Z" style="transform-origin:256.39px 83.946px" transform="rotate(180 0 0)"/>
  <path d="M280.348 111.95c.022-2.344.043-4.687.062-7.465-10.323-.482-20.645-.529-31.426-.527-.498 2.405-.537 4.761-.59 7.56 10.368.419 20.75.395 31.575.372.442.001.379.06.379.06Z" style="transform-origin:264.402px 107.954px" transform="rotate(180 0 0)"/>
  <path fill="#00A800" d="M191.92 136.097c.453-2.393.469-4.82.506-7.703.021-.455.004-.385-.411-.372-2.794-.011-5.173-.035-7.553-.058l-.122.121c-.007 2.477.026 4.953.098 7.428 2.377.471 4.711.51 7.482.584Z" style="transform-origin:188.385px 132.032px" transform="rotate(180 0 0)"/>
  <path d="M280.803 64.066c-.444 2.528-.444 4.987-.444 7.677h8.002c0-2.348 0-4.618.031-7.343-2.361-.438-4.753-.42-7.589-.334Zm-.288 23.924c-.053 4.974-.106 9.948-.158 15.377 2.326.506 4.65.558 7.406.607.485-4.98.538-9.958.155-15.455-2.759-.523-5.081-.526-7.403-.529Z" style="transform-origin:284.374px 83.996px" transform="rotate(180 0 0)"/>
  <path fill="#0F0" d="M176.452 159.281c2.41.484 4.789.508 7.62.519.45-5.194.45-10.375.45-15.974 2.488 0 4.721 0 7.408-.006.456-2.317.458-4.628.427-7.36-5.096-.421-10.158-.421-15.935-.421 0 7.766 0 15.273.03 23.242Z" style="transform-origin:184.395px 147.921px" transform="rotate(180 0 0)"/>
  <path d="M240.392 64.32v15.682h7.84c0-4.793 0-9.712-.437-15.152-2.759-.524-5.081-.527-7.403-.53Z" style="transform-origin:244.312px 72.161px" transform="rotate(180 0 0)"/>
  <path fill="#FF4848" d="M232.768 87.019c2.385.45 4.707.453 7.463.518 2.9.062 5.364.062 8.128.062v-7.73h-15.653c0 2.192 0 4.447.062 7.15Zm40 0c2.385.45 4.707.453 7.463.518 2.9.062 5.364.062 8.128.062v-7.73h-15.653c0 2.192 0 4.447.062 7.15Z" style="transform-origin:260.532px 83.734px" transform="rotate(180 0 0)"/>
  <path d="M240.776 96.347c.03 2.434.03 4.899.03 7.699h7.578v-7.66c-2.268 0-4.527 0-7.242.026-.458.025-.395-.034-.366-.065Z" style="transform-origin:244.57px 100.198px" transform="rotate(180 0 0)"/>
</svg>
